<svg width="35" height="35" viewBox="0 0 35 35" fill="none" xmlns="http://www.w3.org/2000/svg">
<path d="M17.78 34.754C8.28675 34.754 0.565186 26.9548 0.565186 17.377C0.565186 7.7992 8.28675 0 17.78 0C24.375 0 30.4683 3.88427 33.3152 9.88444L34.0014 11.3257L29.1882 16.181L25.9828 12.9918L28.4816 10.4671C26.1672 6.81791 22.1221 4.52824 17.78 4.52824C10.7855 4.52824 5.09162 10.2933 5.09162 17.3668C5.09162 24.4402 10.7855 30.2053 17.78 30.2053C22.1221 30.2053 26.1672 27.9156 28.4816 24.2664L19.7052 15.394C19.1932 14.8726 18.5071 14.5864 17.78 14.5864C17.0529 14.5864 16.377 14.8726 15.8547 15.394C14.7794 16.4775 14.7794 18.2356 15.8547 19.3191C16.3667 19.8404 17.0529 20.1266 17.78 20.1266C18.5071 20.1266 19.183 19.8404 19.7052 19.3191L20.4835 18.5218L23.6991 21.711L22.9106 22.5083C21.5383 23.8985 19.7155 24.6549 17.78 24.6549C15.8445 24.6549 14.0216 23.8882 12.6493 22.5083C9.8331 19.6667 9.8331 15.0362 12.6493 12.1946C14.0216 10.8146 15.8342 10.048 17.78 10.048C19.7155 10.048 21.5383 10.8146 22.9106 12.1946L34.0014 23.3976L33.3152 24.8389C30.4683 30.8697 24.3648 34.754 17.78 34.754Z" fill="white"/>
</svg>
